<svg width="40" height="52" viewBox="0 0 40 52" fill="none" xmlns="http://www.w3.org/2000/svg">
<g filter="url(#filter0_d_645_1595)">
<path d="M36 16C36 11.7565 34.3143 7.68687 31.3137 4.68629C28.3131 1.68571 24.2435 0 20 0C15.7565 0 11.6869 1.68571 8.68629 4.68629C5.68571 7.68687 4 11.7565 4 16C4 16.2133 4 16.4267 4.01707 16.64V16H20.0171V32C24.2576 31.9955 28.3229 30.3078 31.3197 27.3077C34.3166 24.3076 36 20.2405 36 16Z" fill="#61DCDF"/>
<path d="M4 17V44H20V32.3071H19.9872C15.8545 32.3071 11.8822 30.7136 8.90207 27.8602C5.92197 25.0069 4.16531 21.1151 4 17Z" fill="#886CFF"/>
<path d="M4 16V16.64C4.16526 20.7693 5.92146 24.6746 8.90077 27.5378C11.8801 30.401 15.8514 32 19.9829 32H20V16H4Z" fill="#F9E492"/>
</g>
<defs>
<filter id="filter0_d_645_1595" x="0" y="0" width="40" height="52" filterUnits="userSpaceOnUse" color-interpolation-filters="sRGB">
<feFlood flood-opacity="0" result="BackgroundImageFix"/>
<feColorMatrix in="SourceAlpha" type="matrix" values="0 0 0 0 0 0 0 0 0 0 0 0 0 0 0 0 0 0 127 0" result="hardAlpha"/>
<feOffset dy="4"/>
<feGaussianBlur stdDeviation="2"/>
<feComposite in2="hardAlpha" operator="out"/>
<feColorMatrix type="matrix" values="0 0 0 0 0 0 0 0 0 0 0 0 0 0 0 0 0 0 0.25 0"/>
<feBlend mode="normal" in2="BackgroundImageFix" result="effect1_dropShadow_645_1595"/>
<feBlend mode="normal" in="SourceGraphic" in2="effect1_dropShadow_645_1595" result="shape"/>
</filter>
</defs>
</svg>
