<svg width="137" height="137" fill="none" xmlns="http://www.w3.org/2000/svg"><path d="M0 113.582a79.328 79.328 0 0025.856 17.263 79.55 79.55 0 0030.532 6.012 79.951 79.951 0 0030.56-6.152 80.318 80.318 0 0025.936-17.38 80.422 80.422 0 0017.362-25.963 80.195 80.195 0 006.145-30.592 79.776 79.776 0 00-6.006-30.564A79.412 79.412 0 00113.141.322L88.254 25.236a44.565 44.565 0 0113.02 31.61 44.977 44.977 0 01-13.164 31.67 44.881 44.881 0 01-31.637 13.179 44.471 44.471 0 01-31.578-13.034L0 113.582z" fill="#FF9513"/></svg>